<?xml version="1.0" encoding="UTF-8" standalone="no"?>
<svg width="19px" height="18px" viewBox="0 0 19 18" version="1.1" xmlns="http://www.w3.org/2000/svg" xmlns:xlink="http://www.w3.org/1999/xlink">
    <!-- Generator: Sketch 40 (33762) - http://www.bohemiancoding.com/sketch -->
    <title>Heart</title>
    <desc>Created with Sketch.</desc>
    <defs></defs>
    <g id="Page-1" stroke="none" stroke-width="1" fill="none" fill-rule="evenodd">
        <g id="Main-page-Tap.az" transform="translate(-675.000000, -233.000000)" fill="#FFFFFF">
            <path d="M693.968595,238.17295 C693.69125,235.175251 691.530594,233.000359 688.826577,233.000359 C687.025117,233.000359 685.375666,233.952345 684.447531,235.478107 C683.527799,233.932609 681.945949,233 680.173356,233 C677.469704,233 675.308683,235.174892 675.031704,238.172591 C675.00978,238.305001 674.919889,239.001856 675.193214,240.138283 C675.587124,241.777437 676.496989,243.268392 677.823785,244.448955 L684.443146,250.347826 L691.176149,244.449314 C692.502944,243.268392 693.412809,241.777795 693.806719,240.138283 C694.080044,239.002215 693.990154,238.30536 693.968595,238.17295 L693.968595,238.17295 Z M680.846072,235.89866 C679.234258,235.89866 677.92281,237.186515 677.92281,238.769332 C677.92281,238.967767 677.759473,239.128166 677.557402,239.128166 C677.355332,239.128166 677.191995,238.967767 677.191995,238.769332 C677.191995,236.790722 678.831214,235.180993 680.846072,235.180993 C681.048142,235.180993 681.21148,235.341391 681.21148,235.539827 C681.21148,235.738262 681.047777,235.89866 680.846072,235.89866 L680.846072,235.89866 Z" id="Heart"></path>
        </g>
    </g>
</svg>