<?xml version="1.0" encoding="UTF-8" standalone="no"?>
<svg width="14px" height="13px" viewBox="0 0 14 13" version="1.1" xmlns="http://www.w3.org/2000/svg" xmlns:xlink="http://www.w3.org/1999/xlink">
    <!-- Generator: Sketch 40 (33762) - http://www.bohemiancoding.com/sketch -->
    <title>HOUSE</title>
    <desc>Created with Sketch.</desc>
    <defs></defs>
    <g id="Page-1" stroke="none" stroke-width="1" fill="none" fill-rule="evenodd">
        <g id="Main-page-Tap.az" transform="translate(-218.000000, -173.000000)" fill="#FFFFFF">
            <g id="Group-6" transform="translate(218.000000, 171.000000)">
                <path d="M11.6921475,8.36347743 C11.4647619,8.36347743 11.2886638,8.53642708 11.2886638,8.76185069 L11.2886638,14.2034566 L8.427471,14.2034566 L8.427471,11.9814271 C8.427471,11.7729757 8.25139584,11.59075 8.03853636,11.59075 L5.96976185,11.59075 C5.74219323,11.59075 5.55891218,11.7729531 5.55891218,11.9814271 L5.55891218,14.2034566 L2.70492525,14.2034566 L2.70492525,8.9425191 C2.70492525,8.73248785 2.52901022,8.55802604 2.30144159,8.55802604 C2.08874224,8.55802604 1.91266708,8.73248785 1.91266708,8.9425191 L1.91266708,14.6018524 C1.91266708,14.8118611 2.08874224,14.9863455 2.30144159,14.9863455 L5.96976185,14.9863455 C6.1824612,14.9863455 6.35853636,14.8118611 6.35853636,14.6018524 L6.35853636,12.3798003 L7.63502983,12.3798003 L7.63502983,14.6018524 C7.63502983,14.8118611 7.81110499,14.9863455 8.03853636,14.9863455 L11.6921475,14.9863455 C11.9048697,14.9863455 12.080922,14.8118611 12.080922,14.6018524 L12.080922,8.76187326 C12.080922,8.53644965 11.9048697,8.36347743 11.6921475,8.36347743 Z M13.8856867,8.67385243 L10.701739,5.51914063 L10.701739,3.36813715 C10.701739,3.14422569 10.5182978,2.97129861 10.2908893,2.97129861 C10.0780298,2.97129861 9.90197754,3.14424826 9.90197754,3.36813715 L9.90197754,4.73009028 L7.27555924,2.12354514 C7.19508211,2.04324306 7.09948407,2 7.00416055,2 C6.89412787,2 6.79866708,2.04477778 6.7180527,2.12354514 L0.122634401,8.63060938 C-0.0355976247,8.78656424 -0.0460747488,9.03672396 0.122634401,9.18033333 C0.269291264,9.34709896 0.521908911,9.33628819 0.680140937,9.18033333 L7.00416055,2.95583854 L13.313471,9.23901389 C13.3791932,9.30387847 13.474837,9.3409375 13.5995788,9.3409375 C13.7096115,9.3409375 13.8049122,9.30387847 13.8856867,9.23901389 C14.0324808,9.09386979 14.0434383,8.83136458 13.8856867,8.67385243 Z" id="HOUSE"></path>
            </g>
        </g>
    </g>
</svg>