<?xml version="1.0" encoding="UTF-8" standalone="no"?>
<svg width="18px" height="25px" viewBox="0 0 18 25" version="1.1" xmlns="http://www.w3.org/2000/svg" xmlns:xlink="http://www.w3.org/1999/xlink">
    <!-- Generator: Sketch 40 (33762) - http://www.bohemiancoding.com/sketch -->
    <title>LOCATION</title>
    <desc>Created with Sketch.</desc>
    <defs></defs>
    <g id="Page-1" stroke="none" stroke-width="1" fill="none" fill-rule="evenodd">
        <g id="Main-page-Tap.az" transform="translate(-789.000000, -320.000000)" fill="#C1C1C1">
            <path d="M797.990441,333.167647 C795.688235,333.167647 793.814706,331.294118 793.814706,328.991176 C793.814706,326.688235 795.6875,324.814706 797.990441,324.814706 C800.293382,324.814706 802.166176,326.688235 802.166176,328.991176 C802.166176,331.294118 800.292647,333.167647 797.990441,333.167647 L797.990441,333.167647 Z M797.990441,344.415441 C797.881618,344.415441 797.778676,344.367647 797.708824,344.283824 C797.352941,343.859559 789,333.831618 789,328.991912 C789,324.033824 793.033088,320 797.990441,320 C802.947794,320 806.980882,324.033824 806.980882,328.991912 C806.980882,333.832353 798.627941,343.859559 798.272794,344.284559 C798.202206,344.367647 798.098529,344.415441 797.990441,344.415441 Z M797.990441,325.550735 C796.093382,325.550735 794.55,327.094118 794.55,328.991912 C794.55,330.889706 796.093382,332.433088 797.990441,332.433088 C799.8875,332.433088 801.430882,330.889706 801.430882,328.991912 C801.430882,327.094118 799.8875,325.550735 797.990441,325.550735 Z M797.990441,320.735294 C793.438235,320.735294 789.735294,324.438971 789.735294,328.991912 C789.735294,333.088235 796.511765,341.65 797.990441,343.468382 C799.468382,341.649265 806.245588,333.0875 806.245588,328.991912 C806.244853,324.438971 802.541912,320.735294 797.990441,320.735294 Z" id="LOCATION"></path>
        </g>
    </g>
</svg>