<?xml version="1.0" encoding="UTF-8" standalone="no"?>
<svg width="21px" height="21px" viewBox="0 0 21 21" version="1.1" xmlns="http://www.w3.org/2000/svg" xmlns:xlink="http://www.w3.org/1999/xlink">
    <!-- Generator: Sketch 40 (33762) - http://www.bohemiancoding.com/sketch -->
    <title>PLUS</title>
    <desc>Created with Sketch.</desc>
    <defs></defs>
    <g id="Page-1" stroke="none" stroke-width="1" fill="none" fill-rule="evenodd">
        <g id="Main-page-Tap.az" transform="translate(-968.000000, -232.000000)" fill="#FFFFFF">
            <g id="Group-37" transform="translate(948.000000, 219.000000)">
                <g id="Group-2" transform="translate(20.000000, 13.000000)">
                    <path d="M9,9 L1.49343323,9 C0.674923137,9 0,9.67157288 0,10.5 C0,11.3342028 0.668632833,12 1.49343323,12 L9,12 L9,19.4215869 C9,20.3012924 9.67157288,21 10.5,21 C11.3342028,21 12,20.2933204 12,19.4215869 L12,12 L19.5065668,12 C20.3250769,12 21,11.3284271 21,10.5 C21,9.66579723 20.3313672,9 19.5065668,9 L12,9 L12,1.57841313 C12,0.698707581 11.3284271,0 10.5,0 C9.66579723,0 9,0.706679629 9,1.57841313 L9,9 L9,9 Z" id="PLUS"></path>
                </g>
            </g>
        </g>
    </g>
</svg>