<?xml version="1.0" encoding="UTF-8" standalone="no"?>
<svg width="18px" height="18px" viewBox="0 0 18 18" version="1.1" xmlns="http://www.w3.org/2000/svg" xmlns:xlink="http://www.w3.org/1999/xlink">
    <!-- Generator: Sketch 40 (33762) - http://www.bohemiancoding.com/sketch -->
    <title>SEARCH</title>
    <desc>Created with Sketch.</desc>
    <defs></defs>
    <g id="Page-1" stroke="none" stroke-width="1" fill="none" fill-rule="evenodd">
        <g id="Main-page-Tap.az" transform="translate(-232.000000, -322.000000)" fill="#C2C2C2">
            <path d="M249.84235,339.08204 L245.468071,334.707761 C246.641463,333.358758 247.351885,331.59867 247.351885,329.674945 C247.351885,325.440355 243.907539,322 239.67694,322 C235.44235,322 232.001996,325.444346 232.001996,329.674945 C232.001996,333.905543 235.446341,337.349889 239.67694,337.349889 C241.600665,337.349889 243.360754,336.639468 244.709756,335.466075 L249.084035,339.840355 C249.187805,339.944124 249.327494,340 249.463193,340 C249.598891,340 249.738581,339.948115 249.84235,339.840355 C250.049889,339.632816 250.049889,339.289579 249.84235,339.08204 L249.84235,339.08204 Z M233.07561,329.674945 C233.07561,326.035033 236.037029,323.077605 239.672949,323.077605 C243.31286,323.077605 246.270288,326.039024 246.270288,329.674945 C246.270288,333.310865 243.31286,336.276275 239.672949,336.276275 C236.037029,336.276275 233.07561,333.314856 233.07561,329.674945 L233.07561,329.674945 Z" id="SEARCH"></path>
        </g>
    </g>
</svg>